<?xml version="1.0" standalone="no"?>
<!DOCTYPE svg PUBLIC "-//W3C//DTD SVG 20010904//EN"
 "http://www.w3.org/TR/2001/REC-SVG-20010904/DTD/svg10.dtd">
<svg version="1.0" xmlns="http://www.w3.org/2000/svg"
 width="16.000000pt" height="16.000000pt" viewBox="0 0 16.000000 16.000000"
 preserveAspectRatio="xMidYMid meet">
<metadata>
Created by potrace 1.11, written by Peter Selinger 2001-2013
</metadata>
<g transform="translate(0.000000,16.000000) scale(0.015686,-0.015686)"
fill="#000000" stroke="none">
<path d="M133 957 c-28 -12 -30 -27 -5 -27 10 0 27 -6 37 -14 16 -12 19 -28
20 -109 1 -59 -3 -93 -9 -90 -5 4 -6 1 -1 -8 13 -20 14 -120 2 -112 -6 4 -7 1
-1 -8 12 -20 12 -71 0 -91 -6 -10 -22 -18 -37 -18 -16 0 -26 -5 -26 -15 0 -14
21 -15 156 -12 86 2 171 6 189 9 l32 6 0 -188 c0 -201 0 -201 -54 -214 -19 -5
-26 -10 -19 -17 11 -11 321 -8 363 4 14 3 40 22 58 42 26 28 32 43 32 80 0 56
-43 111 -96 121 -19 3 -37 11 -41 18 -3 6 -3 8 2 4 9 -9 62 26 91 60 20 24 21
37 8 99 -5 29 -63 63 -116 69 -24 2 -49 7 -55 9 -7 2 -13 1 -13 -4 0 -4 -11
-6 -25 -3 -28 5 -31 12 -13 30 13 13 19 33 21 75 1 15 5 27 10 27 4 0 3 9 -3
20 -8 14 -8 20 0 20 6 0 8 5 4 12 -4 7 -9 22 -10 34 -4 34 -39 97 -69 123 -35
29 -112 64 -125 56 -6 -3 -10 -2 -10 4 0 5 -22 9 -50 7 -27 -1 -50 1 -50 5 0
4 -14 4 -30 -1 -17 -5 -30 -5 -30 0 0 5 -13 5 -30 0 -16 -5 -30 -5 -30 0 0 9
-19 8 -37 -3 -6 -4 -13 -3 -15 2 -1 4 -13 4 -25 -2z m294 -51 c39 -20 79 -65
97 -107 14 -33 16 -153 4 -199 -5 -20 -38 -67 -38 -54 0 6 -15 8 -35 6 -26 -3
-35 -9 -35 -23 0 -12 6 -17 20 -14 27 5 25 -7 -3 -20 -37 -18 -116 -18 -141
-1 -24 15 -24 16 -24 220 1 180 3 206 17 209 29 8 110 -2 138 -17z m289 -411
c14 -9 23 -19 20 -22 -3 -4 -2 -11 4 -17 14 -18 -6 -88 -32 -108 -23 -17 -35
-20 -93 -22 l-30 -1 -1 90 c-1 50 1 94 3 98 8 13 102 0 129 -18z m-7 -216 c34
-12 61 -53 61 -92 0 -73 -44 -117 -117 -117 -65 1 -71 13 -71 123 l1 97 47 0
c26 0 61 -5 79 -11z"/>
</g>
</svg>
